<?xml version="1.0" standalone="no"?>
<!DOCTYPE svg PUBLIC "-//W3C//DTD SVG 20010904//EN"
 "http://www.w3.org/TR/2001/REC-SVG-20010904/DTD/svg10.dtd">
<svg version="1.0" xmlns="http://www.w3.org/2000/svg"
 width="1024.000000pt" height="1024.000000pt" viewBox="0 0 1024.000000 1024.000000"
 preserveAspectRatio="xMidYMid meet">

<g transform="translate(0.000000,1024.000000) scale(0.100000,-0.100000)"
fill="#000000" stroke="none">
<path d="M4980 9211 l-55 -6 -20 -114 -20 -114 -48 -14 -47 -14 -91 71 c-50
38 -95 70 -100 70 -4 0 -51 -41 -104 -92 -62 -59 -94 -96 -90 -106 8 -20 115
-181 125 -187 5 -3 -3 -34 -17 -69 l-25 -64 -112 -12 c-61 -7 -117 -17 -123
-23 -9 -7 -13 -46 -13 -132 l0 -123 28 -6 c15 -3 70 -13 123 -22 l97 -18 26
-68 27 -69 -52 -67 c-29 -37 -63 -79 -76 -93 l-24 -26 42 -49 c23 -27 63 -73
90 -102 l48 -52 106 81 106 81 47 -17 c26 -10 50 -20 54 -24 3 -3 11 -51 17
-106 6 -55 14 -115 17 -132 l5 -33 143 0 142 0 18 134 18 135 44 15 44 15 107
-75 c58 -40 109 -74 112 -74 12 0 196 173 193 182 -1 5 -34 51 -73 104 l-72
94 22 51 c11 29 21 58 21 66 0 17 28 27 115 42 39 6 83 14 98 17 l28 6 -3 131
-3 132 -115 18 -115 19 -26 67 -26 66 44 60 c24 33 56 77 70 98 l26 38 -103
99 -103 100 -97 -80 -97 -79 -49 18 -49 19 -24 113 c-13 63 -24 115 -25 116
-5 6 -160 10 -206 4z m170 -43 c0 -2 11 -52 23 -112 l22 -108 79 -29 78 -28
85 74 85 75 57 -49 c31 -27 66 -60 78 -73 l22 -23 -68 -92 -69 -92 37 -92 c21
-51 42 -94 47 -95 5 -1 55 -8 112 -14 l102 -12 0 -89 c0 -104 9 -95 -123 -118
-57 -10 -93 -21 -98 -31 -4 -8 -23 -50 -43 -93 l-36 -78 71 -94 c81 -107 81
-100 -4 -184 l-55 -53 -84 62 c-45 34 -91 71 -100 82 -18 20 -18 20 -65 -2
-27 -13 -59 -26 -73 -30 -23 -6 -26 -14 -45 -131 l-20 -124 -102 -3 -101 -3
-7 53 c-20 161 -28 208 -39 208 -6 0 -40 14 -75 30 l-64 30 -31 -24 c-17 -13
-62 -49 -101 -80 l-70 -56 -62 67 c-35 38 -63 71 -63 74 0 4 30 42 66 85 36
44 68 84 71 91 3 7 -12 52 -33 101 l-37 89 -66 12 c-36 7 -87 17 -113 23 l-48
10 0 92 0 92 119 13 119 13 6 30 c3 17 18 56 32 88 l26 58 -52 63 c-28 35 -59
78 -70 96 l-19 32 75 71 75 71 42 -32 c23 -18 65 -52 92 -75 l51 -42 71 31
c80 34 74 24 94 165 l11 82 94 0 c52 0 94 -1 94 -2z"/>
<path d="M4951 8824 c-81 -22 -147 -62 -206 -126 -80 -86 -99 -144 -100 -293
0 -113 2 -124 29 -180 41 -83 136 -177 223 -218 64 -30 75 -32 178 -32 104 0
114 2 179 34 84 41 170 125 211 207 38 77 47 221 20 306 -73 225 -314 361
-534 302z m192 -39 c111 -29 196 -90 256 -183 68 -108 80 -258 28 -365 -54
-109 -196 -209 -317 -223 -149 -17 -324 86 -397 233 -25 53 -28 68 -28 163 0
93 3 112 27 162 50 106 148 186 263 214 68 17 101 17 168 -1z"/>
<path d="M5160 8679 c-14 -6 -36 -21 -50 -34 l-26 -25 -49 26 c-119 61 -228
-16 -224 -159 2 -112 8 -123 130 -237 128 -120 133 -124 162 -116 31 7 217
191 217 214 0 11 -12 31 -27 46 l-27 27 52 52 c29 29 52 58 52 65 0 25 -34 11
-81 -33 -26 -25 -52 -45 -56 -45 -5 0 -33 25 -63 55 l-54 55 34 37 c19 20 41
42 49 49 8 6 11 16 7 22 -8 14 -13 14 -46 1z m-124 -92 l36 -33 -66 -62 c-37
-34 -71 -62 -75 -62 -5 0 -23 13 -40 29 -66 62 -23 161 70 161 30 0 47 -7 75
-33z m150 -152 l89 -85 -93 -92 -93 -92 -84 84 c-47 47 -85 88 -85 92 0 5 169
176 176 178 1 0 41 -38 90 -85z m-297 -29 c8 -10 9 -16 1 -21 -13 -8 -30 3
-30 21 0 18 14 18 29 0z"/>
<path d="M7010 8057 c-25 -13 -55 -38 -67 -57 l-23 -33 0 -883 c0 -607 3 -890
11 -907 24 -52 20 -52 509 -55 345 -2 460 0 478 9 18 10 30 10 56 1 39 -14
254 -16 290 -2 14 5 35 24 46 42 20 32 20 51 20 906 0 966 3 916 -66 968 l-37
29 -586 3 -586 3 -45 -24z m1197 -90 c16 -16 18 -44 21 -292 l3 -275 -608 2
-608 3 -3 85 c-2 47 0 168 3 269 7 176 8 185 31 208 l24 23 559 -2 c522 -3
562 -4 578 -21z m-1033 -703 c22 -8 23 -146 2 -163 -9 -7 -41 -11 -83 -9 l-68
3 -3 73 c-2 46 2 79 9 88 12 14 112 20 143 8z m270 -10 c9 -23 7 -137 -2 -151
-5 -7 -36 -15 -70 -17 -83 -7 -92 3 -92 98 0 40 3 76 7 79 3 4 39 7 79 7 56 0
73 -3 78 -16z m251 -74 l0 -85 -68 -3 c-42 -2 -74 2 -83 9 -18 15 -19 140 -2
157 9 9 37 12 83 10 l70 -3 0 -85z m263 3 l3 -82 -38 -10 c-53 -15 -85 -14
-111 5 -19 13 -22 24 -22 79 0 96 0 96 89 93 l76 -3 3 -82z m260 6 c2 -54 -1
-79 -10 -87 -21 -17 -138 -18 -149 -1 -10 16 -12 129 -3 154 5 13 20 15 83 13
l76 -3 3 -76z m-530 -201 c7 -7 12 -42 12 -89 0 -89 0 -89 -90 -89 -71 0 -80
11 -80 99 0 78 13 91 89 91 31 0 62 -5 69 -12z m260 3 c9 -5 12 -31 10 -92
l-3 -84 -52 -8 c-38 -6 -60 -5 -80 5 -26 12 -28 18 -31 80 -4 97 4 108 81 108
34 0 68 -4 75 -9z m256 3 c22 -8 23 -156 2 -173 -9 -7 -41 -11 -83 -9 l-68 3
-3 78 c-2 50 1 84 9 93 12 14 112 20 143 8z m-1016 -82 c4 -97 -2 -104 -92
-100 l-71 3 -3 74 c-2 41 -1 80 2 88 4 11 24 13 83 11 l78 -3 3 -73z m260 0
c4 -97 -2 -104 -92 -100 l-71 3 -3 74 c-2 41 -1 80 2 88 4 11 24 13 83 11 l78
-3 3 -73z m-270 -215 c14 -11 17 -134 3 -156 -10 -16 -97 -27 -135 -17 -25 6
-26 9 -26 83 0 101 11 113 88 106 31 -3 63 -10 70 -16z m510 7 c9 -3 12 -26
10 -86 l-3 -83 -74 -3 c-53 -2 -77 1 -82 10 -11 16 -11 139 -1 154 4 6 14 14
22 17 15 5 102 0 128 -9z m253 6 c16 -9 19 -22 19 -94 0 -95 -1 -96 -81 -96
-81 0 -89 8 -89 95 0 65 3 76 22 89 25 18 100 21 129 6z m-502 -14 c7 -9 11
-42 9 -88 l-3 -73 -79 -3 c-57 -2 -82 1 -87 10 -13 20 -11 142 3 156 17 17
142 16 157 -2z m776 -8 c3 -13 4 -117 3 -233 l-3 -210 -79 -3 c-50 -2 -82 1
-86 8 -11 17 -9 423 1 443 8 14 23 17 84 17 69 0 75 -2 80 -22z m-1037 -270
c18 -18 16 -152 -2 -167 -9 -7 -41 -11 -83 -9 l-68 3 -3 78 c-2 50 1 84 9 93
14 18 130 19 147 2z m270 -71 c2 -50 -1 -84 -9 -93 -15 -18 -148 -20 -153 -1
-3 6 -7 42 -10 79 -7 91 2 100 98 96 l71 -3 3 -78z m247 66 c14 -14 16 -28 10
-87 -4 -39 -9 -74 -11 -78 -8 -13 -139 -9 -152 4 -7 7 -12 41 -12 83 0 42 5
76 12 83 19 19 133 15 153 -5z m253 5 c7 -7 12 -41 12 -83 0 -42 -5 -76 -12
-83 -7 -7 -39 -12 -73 -12 -34 0 -66 5 -73 12 -7 7 -12 41 -12 83 0 42 5 76
12 83 7 7 39 12 73 12 34 0 66 -5 73 -12z"/>
<path d="M7140 7716 c0 -90 3 -178 6 -195 l7 -31 467 0 c417 0 469 2 474 16 3
9 6 96 6 195 l0 179 -480 0 -480 0 0 -164z"/>
<path d="M1637 7846 c-22 -8 -50 -25 -64 -38 -55 -51 -53 -21 -53 -776 l0
-699 23 -44 c15 -27 38 -52 63 -66 38 -22 47 -23 333 -23 l294 0 43 25 c23 14
53 42 66 62 l23 38 3 685 c2 377 0 699 -3 717 -7 39 -46 87 -89 111 -27 15
-69 17 -316 19 -225 2 -293 0 -323 -11z m628 -54 c17 -10 38 -33 48 -52 16
-33 17 -80 15 -720 -3 -763 1 -717 -71 -760 -30 -19 -52 -20 -317 -20 -312 0
-318 1 -357 59 l-23 34 0 684 c0 727 0 724 48 766 11 10 31 21 46 25 14 4 150
6 303 4 241 -3 282 -5 308 -20z"/>
<path d="M1920 7635 c0 -30 -3 -35 -22 -35 -26 0 -71 -27 -93 -56 -8 -11 -14
-42 -15 -72 0 -46 4 -58 28 -82 16 -16 45 -32 65 -35 l37 -7 0 -79 c0 -49 -4
-79 -11 -79 -22 0 -49 22 -64 50 -18 36 -55 42 -55 9 0 -48 61 -109 108 -109
17 0 21 -7 24 -37 2 -30 7 -38 23 -38 15 0 21 8 23 32 3 28 8 34 41 43 131 35
135 228 5 249 l-39 6 -3 73 c-2 59 0 73 13 78 20 8 65 -32 65 -58 0 -13 8 -18
31 -18 27 0 30 3 23 23 -20 67 -63 107 -114 107 -16 0 -20 6 -20 35 0 31 -3
35 -25 35 -22 0 -25 -4 -25 -35z m0 -160 c0 -84 -11 -95 -55 -50 -34 33 -33
77 1 104 47 37 54 29 54 -54z m120 -157 c11 -12 20 -35 20 -50 0 -34 -39 -78
-70 -78 -18 0 -20 6 -20 75 0 73 1 75 25 75 13 0 33 -10 45 -22z"/>
<path d="M1808 6963 c-96 -3 -118 -6 -118 -18 0 -8 1 -15 3 -15 1 0 115 -3
252 -6 228 -6 252 -5 265 11 29 35 -10 38 -402 28z"/>
<path d="M1697 6803 c-4 -3 -7 -12 -7 -20 0 -10 50 -13 259 -13 253 0 300 6
260 31 -16 10 -502 12 -512 2z"/>
<path d="M1690 6630 c0 -19 7 -20 259 -20 204 0 261 3 270 13 6 8 8 17 4 20
-3 4 -125 7 -270 7 -256 0 -263 -1 -263 -20z"/>
<path d="M1707 6480 c-57 -45 -20 -130 57 -130 36 0 86 41 86 70 0 30 -42 70
-80 76 -27 4 -42 1 -63 -16z m84 -36 c26 -23 8 -54 -30 -54 -38 0 -56 22 -41
49 13 25 47 27 71 5z"/>
<path d="M1908 6484 c-33 -17 -45 -56 -29 -90 20 -44 100 -59 142 -25 24 19
25 19 48 0 31 -25 85 -25 111 1 39 39 17 113 -38 125 -30 6 -82 -9 -93 -27 -5
-7 -16 -4 -34 11 -32 24 -69 26 -107 5z m91 -38 c21 -25 -4 -58 -41 -54 -38 4
-57 30 -39 52 17 20 65 21 80 2z m149 2 c34 -34 -7 -79 -46 -52 -21 15 -29 44
-15 57 11 11 48 8 61 -5z"/>
<path d="M2536 7829 c-20 -17 -41 -47 -46 -67 -8 -25 -10 -267 -8 -749 3 -704
3 -712 24 -740 11 -15 36 -38 54 -51 34 -23 35 -23 361 -20 313 3 329 4 355
24 15 11 37 33 48 48 21 27 21 38 24 749 2 672 1 724 -15 756 -10 19 -31 44
-46 55 -27 20 -43 21 -372 24 l-343 3 -36 -32z m714 -22 c14 -7 33 -28 42 -47
17 -32 18 -88 18 -723 0 -736 1 -727 -50 -772 -21 -19 -39 -20 -336 -23 -345
-3 -358 -1 -389 58 -23 44 -23 1416 0 1460 31 60 30 60 375 60 232 0 322 -4
340 -13z"/>
<path d="M2667 7632 c-26 -26 -47 -55 -47 -64 0 -21 87 -98 110 -98 20 0 110
85 110 104 0 20 -88 106 -108 106 -10 0 -39 -22 -65 -48z m95 -29 c36 -34 35
-46 -3 -74 l-30 -21 -30 28 c-35 34 -36 38 -4 69 30 31 33 31 67 -2z"/>
<path d="M3010 7643 c-68 -61 -69 -68 -14 -124 27 -27 57 -49 69 -49 19 0 115
86 115 103 0 17 -94 107 -111 107 -11 0 -37 -16 -59 -37z m110 -69 c0 -6 -12
-23 -26 -37 l-26 -27 -29 23 c-35 27 -35 32 -3 74 l26 35 29 -28 c16 -15 29
-33 29 -40z"/>
<path d="M2661 7325 c-51 -54 -52 -55 -35 -77 22 -29 93 -88 106 -88 17 0 108
93 108 110 0 20 -94 110 -115 110 -6 0 -35 -25 -64 -55z m101 -22 c34 -32 34
-40 6 -70 -27 -29 -46 -29 -82 3 -28 25 -28 25 -10 47 21 25 46 47 53 47 3 0
18 -12 33 -27z"/>
<path d="M3017 7349 c-21 -17 -44 -44 -53 -61 -15 -30 -15 -30 33 -74 26 -24
56 -44 66 -44 20 0 117 86 117 105 0 16 -95 105 -112 105 -8 0 -30 -14 -51
-31z m83 -114 l-34 -35 -28 27 c-35 33 -35 49 -1 85 l27 28 35 -35 35 -35 -34
-35z"/>
<path d="M2610 7030 c0 -20 5 -21 97 -18 84 3 98 6 101 21 3 15 -7 17 -97 17
-95 0 -101 -1 -101 -20z"/>
<path d="M2937 7030 c-5 -19 0 -20 104 -20 l109 0 0 -40 c0 -37 -2 -40 -27
-40 -16 0 -32 -4 -38 -8 -6 -4 -9 -84 -7 -214 l3 -208 39 0 40 0 0 -45 0 -45
-65 0 -65 0 0 210 c0 133 -4 210 -10 210 -6 0 -10 -83 -10 -230 l0 -230 85 0
85 0 0 81 0 81 -40 -4 -40 -4 0 188 0 188 35 0 35 0 0 75 0 75 -114 0 c-105 0
-114 -1 -119 -20z"/>
<path d="M2695 6890 c-9 -15 4 -30 26 -30 18 0 20 -6 17 -55 -3 -54 -20 -76
-26 -35 -3 18 -11 20 -78 20 -90 0 -99 -18 -11 -22 l62 -3 3 -197 2 -198 86 0
86 0 -3 188 -4 187 38 3 37 3 0 60 0 59 50 0 c38 0 50 4 50 15 0 13 -25 15
-164 15 -99 0 -167 -4 -171 -10z m215 -75 c0 -54 0 -54 -26 -45 -14 6 -34 10
-44 10 -18 0 -20 -10 -22 -187 l-3 -188 -45 0 -45 0 -3 149 c-3 154 2 176 39
176 12 0 19 7 19 20 0 11 -7 20 -15 20 -11 0 -15 12 -15 50 l0 50 80 0 80 0 0
-55z"/>
<path d="M5510 5150 l0 -390 80 0 80 0 2 290 3 289 55 -67 c117 -142 354 -419
398 -464 l46 -48 83 0 83 0 0 390 0 390 -80 0 -80 0 -2 -270 -3 -270 -173 203
c-95 112 -196 234 -225 270 l-52 67 -107 0 -108 0 0 -390z"/>
<path d="M6557 5533 c-4 -3 -7 -179 -7 -390 l0 -384 83 3 82 3 3 388 2 387
-78 0 c-43 0 -82 -3 -85 -7z"/>
<path d="M6880 5534 c0 -9 80 -110 199 -249 l111 -130 -34 -35 c-31 -33 -265
-305 -296 -344 -13 -17 -10 -18 89 -14 l104 3 115 143 c63 78 118 142 121 142
4 0 59 -65 122 -145 l114 -145 104 0 c97 0 103 1 90 18 -45 58 -108 133 -212
255 l-119 137 144 173 c80 94 148 178 152 185 6 9 -15 12 -88 12 l-95 0 -103
-125 c-57 -68 -107 -124 -113 -125 -10 0 -13 3 -133 149 l-83 101 -94 0 c-52
0 -95 -3 -95 -6z"/>
<path d="M2412 5148 l3 -383 255 -3 c280 -3 399 7 459 37 65 34 107 120 95
199 -9 58 -41 103 -93 128 l-44 21 36 27 c55 42 81 105 73 174 -9 74 -41 123
-103 153 -47 23 -55 24 -366 27 l-317 3 2 -383z m579 229 c27 -18 35 -30 37
-59 8 -92 -31 -108 -268 -108 l-180 0 0 95 0 95 189 0 c179 0 190 -1 222 -23z
m28 -323 c25 -21 31 -34 31 -64 0 -79 -32 -90 -276 -90 l-194 0 0 90 0 90 204
0 204 0 31 -26z"/>
<path d="M3390 5145 l0 -386 83 3 82 3 3 383 2 382 -85 0 -85 0 0 -385z"/>
<path d="M3680 5460 l0 -69 143 -3 142 -3 3 -312 2 -313 85 0 85 0 0 310 0
310 150 0 150 0 0 75 0 75 -380 0 -380 0 0 -70z"/>
<path d="M4532 5268 c5 -244 6 -267 28 -323 28 -74 79 -125 157 -157 53 -21
73 -23 223 -23 l165 0 70 35 c82 41 128 95 143 167 6 26 14 164 18 306 l7 257
-86 0 -86 0 -3 -257 c-4 -298 -6 -308 -93 -352 -42 -22 -61 -26 -141 -25 -78
0 -100 4 -140 25 -86 44 -89 54 -92 352 l-3 257 -86 0 -85 0 4 -262z"/>
<path d="M7718 4207 l-117 -9 -10 -49 c-6 -27 -14 -67 -17 -89 -6 -37 -10 -41
-48 -51 -22 -5 -69 -19 -104 -30 l-63 -21 -46 39 c-25 21 -58 48 -73 60 l-26
22 -80 -61 c-43 -33 -88 -66 -98 -74 -19 -13 -19 -16 18 -99 20 -48 36 -90 34
-94 -2 -4 -25 -37 -53 -75 l-50 -67 -99 3 -100 3 -38 -115 c-20 -63 -37 -122
-38 -130 0 -9 33 -31 83 -55 l82 -40 0 -95 0 -95 -80 -42 c-68 -36 -80 -46
-77 -65 5 -48 67 -238 77 -238 5 0 45 7 88 15 98 19 94 19 102 -3 3 -11 30
-47 60 -82 l55 -63 -45 -83 c-25 -45 -45 -86 -45 -91 0 -4 28 -30 62 -58 34
-27 73 -60 87 -73 15 -14 28 -19 35 -13 75 59 150 109 159 104 5 -3 53 -20
106 -38 l96 -32 13 -89 c7 -49 14 -95 17 -102 3 -9 36 -12 132 -10 l128 3 14
117 c15 126 16 128 83 128 15 0 50 8 77 19 l50 19 81 -69 c45 -38 85 -69 89
-69 12 0 176 151 179 165 2 7 -15 50 -37 94 -23 44 -41 87 -41 94 0 7 11 24
25 37 14 13 41 47 61 76 l36 52 95 -25 c79 -21 97 -23 104 -12 7 11 68 176 84
227 3 7 -32 31 -90 59 l-95 48 0 101 0 101 90 42 c64 30 90 47 89 59 0 9 -17
62 -38 117 -33 91 -39 100 -61 99 -14 -1 -61 -5 -105 -8 l-80 -7 -52 80 c-56
86 -58 92 -43 119 15 25 70 153 70 161 0 4 -45 38 -100 76 l-99 68 -46 -39
c-25 -21 -61 -51 -78 -66 l-32 -28 -97 33 -96 32 -18 93 c-9 51 -20 94 -23 95
-3 2 -59 -1 -123 -6z m182 -322 c148 -35 319 -149 404 -268 101 -144 140 -262
140 -427 0 -135 -16 -206 -75 -326 -148 -302 -473 -459 -804 -389 -251 53
-470 269 -541 535 -24 88 -24 262 0 349 68 249 288 466 531 525 81 19 263 20
345 1z"/>
<path d="M7629 3850 c-153 -24 -263 -82 -380 -200 -70 -70 -95 -103 -127 -171
-70 -146 -87 -276 -56 -427 50 -242 215 -429 451 -513 85 -30 269 -37 365 -14
246 58 442 262 504 523 39 167 -3 373 -107 522 -82 116 -232 224 -367 264 -67
19 -210 28 -283 16z m-39 -317 c37 -21 70 -82 70 -127 0 -47 -20 -86 -62 -121
-29 -24 -38 -27 -91 -23 -53 4 -64 8 -93 40 -60 66 -55 159 11 217 30 26 44
31 86 31 30 0 63 -7 79 -17z m510 2 c0 -3 -51 -78 -113 -167 -274 -393 -338
-484 -355 -506 -17 -22 -23 -23 -140 -20 l-122 3 83 110 c141 189 291 396 357
493 l64 92 113 0 c62 0 113 -2 113 -5z m-48 -453 c41 -24 71 -86 65 -135 -24
-175 -287 -165 -287 11 0 120 116 185 222 124z"/>
<path d="M7475 3456 c-39 -28 -8 -116 42 -116 20 0 63 46 63 67 0 52 -62 81
-105 49z"/>
<path d="M7932 3008 c-7 -7 -12 -28 -12 -48 0 -58 40 -78 88 -44 29 20 31 79
3 94 -26 14 -64 13 -79 -2z"/>
<path d="M2205 3940 c-154 -24 -297 -87 -431 -189 -149 -113 -251 -263 -310
-457 -25 -82 -28 -103 -28 -259 0 -145 3 -182 22 -250 82 -298 295 -530 575
-626 114 -39 212 -52 342 -46 391 19 713 291 801 676 80 352 4 656 -221 886
-124 126 -245 199 -407 245 -85 24 -253 34 -343 20z m330 -55 c94 -25 255
-109 331 -173 196 -165 304 -401 304 -669 0 -440 -260 -782 -670 -878 -36 -8
-86 -15 -112 -15 l-48 0 0 215 0 215 25 0 c41 0 144 38 202 76 l54 35 42 -36
c56 -48 72 -31 25 27 l-36 44 21 24 c32 40 76 145 85 202 l7 53 120 5 c98 4
120 8 120 20 0 12 -21 15 -121 18 l-121 3 -6 43 c-8 56 -46 142 -81 183 -15
18 -26 36 -24 40 1 5 38 42 81 83 l79 75 23 -27 c12 -15 25 -33 27 -40 4 -11
8 -11 21 1 22 18 13 34 -71 123 -117 124 -210 175 -374 204 -51 9 -99 21 -106
27 -9 7 -16 7 -24 -1 -7 -7 -26 -12 -43 -12 -53 0 -183 -38 -246 -72 -33 -17
-88 -58 -121 -90 -33 -32 -67 -58 -75 -58 -8 0 -11 -4 -8 -10 3 -5 -5 -25 -19
-43 -15 -19 -26 -37 -26 -40 0 -14 35 -6 55 13 l21 20 73 -74 74 -74 -41 -61
c-37 -56 -61 -112 -76 -183 l-6 -28 -140 0 c-133 0 -140 -1 -140 -20 0 -18 8
-20 136 -22 l137 -3 17 -60 c21 -75 60 -153 93 -184 14 -13 24 -28 22 -35 -5
-12 106 -85 176 -115 24 -10 63 -22 87 -26 l42 -7 0 -214 0 -214 -44 0 c-73 0
-229 45 -323 94 -103 53 -225 155 -288 240 -58 79 -118 203 -147 301 -20 69
-23 102 -23 245 0 194 11 243 85 395 102 210 280 365 502 439 42 14 100 30
130 35 73 14 270 5 343 -14z m-235 -309 l0 -133 -57 -6 c-37 -4 -83 -19 -133
-44 -41 -21 -78 -39 -82 -41 -4 -2 -42 31 -85 72 l-78 76 62 59 c34 33 82 71
106 85 50 30 173 65 230 65 l37 1 0 -134z m176 114 c43 -11 102 -31 129 -45
61 -30 175 -121 175 -140 0 -7 -38 -48 -85 -90 l-84 -77 -33 25 c-43 33 -124
64 -187 73 l-51 7 0 133 0 134 28 0 c16 0 64 -9 108 -20z m-176 -414 l0 -134
-27 -7 c-23 -5 -37 4 -119 86 -102 102 -103 104 -32 140 34 17 132 46 166 48
9 1 12 -32 12 -133z m213 82 c37 -17 67 -37 67 -43 0 -21 -181 -187 -197 -181
-8 3 -21 6 -29 6 -11 0 -14 25 -14 134 l0 133 53 -9 c28 -5 82 -23 120 -40z
m-299 -267 c-3 -9 -9 -24 -11 -34 -5 -16 -19 -17 -147 -15 l-141 3 3 35 c4 43
42 128 77 175 l27 35 99 -92 c72 -66 98 -96 93 -107z m436 160 c32 -45 68
-132 72 -171 l3 -35 -141 -3 -141 -3 -7 33 c-6 30 -1 38 81 120 48 48 93 88
100 88 6 0 21 -13 33 -29z m-270 -166 c13 -12 20 -31 20 -57 0 -58 -36 -86
-100 -79 -27 3 -60 50 -60 86 0 65 88 97 140 50z m-167 -109 l16 -35 -101 -91
c-111 -100 -109 -99 -154 -28 -27 43 -67 156 -61 172 3 7 53 12 144 14 l139 3
17 -35z m517 15 c0 -37 -38 -142 -70 -191 l-33 -51 -81 77 c-44 43 -94 90
-109 104 l-28 26 25 27 c25 27 26 27 161 27 126 0 135 -1 135 -19z m-439 -81
c5 0 9 -64 9 -146 l0 -146 -42 7 c-51 9 -131 45 -172 78 l-30 24 100 96 c55
53 105 94 112 92 8 -3 18 -5 23 -5z m204 -89 c52 -52 95 -97 95 -100 0 -23
-132 -85 -202 -95 l-48 -7 0 73 c0 40 -3 103 -6 140 -7 65 -6 68 17 77 13 6
29 9 36 8 7 -1 55 -44 108 -96z"/>
<path d="M1656 3263 c-20 -58 -20 -53 7 -53 18 0 26 9 36 38 8 20 16 43 18 50
3 7 -4 12 -20 12 -21 0 -28 -8 -41 -47z"/>
<path d="M2915 3281 c-8 -14 17 -101 30 -101 5 0 16 4 24 9 11 7 11 16 -4 55
-17 43 -36 58 -50 37z"/>
<path d="M2947 2883 c-3 -5 -8 -22 -11 -39 -6 -25 -3 -33 10 -38 23 -9 34 3
41 47 5 33 3 37 -15 37 -11 0 -23 -3 -25 -7z"/>
<path d="M1673 2843 c-42 -14 -58 -43 -33 -58 15 -9 94 37 98 58 4 20 -9 20
-65 0z"/>
<path d="M2822 2636 c-57 -87 -131 -151 -229 -199 -62 -29 -83 -44 -83 -59 0
-24 18 -20 106 24 100 49 199 141 266 249 13 20 14 29 5 38 -6 6 -14 11 -17
11 -3 0 -25 -29 -48 -64z"/>
<path d="M1780 2660 c-12 -7 -12 -13 -1 -32 27 -50 59 -81 76 -74 16 6 16 8
-1 34 -10 15 -24 39 -32 55 -15 29 -20 31 -42 17z"/>
<path d="M1910 2655 c-11 -13 -10 -19 5 -35 17 -19 20 -19 34 -5 12 11 13 20
5 32 -15 24 -29 26 -44 8z"/>
<path d="M1891 2517 c-6 -6 -11 -14 -11 -18 0 -11 117 -89 124 -82 9 9 7 43
-3 43 -4 0 -28 15 -53 34 -34 26 -48 32 -57 23z"/>
<path d="M2100 2394 c-10 -26 -13 -54 -6 -54 2 0 11 -3 19 -6 21 -8 46 64 26
77 -22 14 -29 11 -39 -17z"/>
<path d="M2068 3554 c-30 -16 -33 -21 -19 -43 8 -12 14 -12 40 -1 37 15 43 23
35 44 -8 20 -21 20 -56 0z"/>
<path d="M2509 3568 c-12 -23 -14 -21 29 -38 29 -11 35 -11 43 1 16 25 10 35
-26 46 -31 10 -36 9 -46 -9z"/>
<path d="M2302 3058 c-32 -32 2 -87 40 -67 22 12 23 42 2 63 -19 19 -26 20
-42 4z"/>
<path d="M4970 2749 c-205 -19 -423 -132 -557 -288 -35 -41 -63 -78 -63 -83 0
-4 162 -8 360 -8 l360 0 0 195 c0 107 -3 194 -7 194 -5 -1 -46 -5 -93 -10z"/>
<path d="M5160 1845 l0 -615 185 0 185 0 0 180 0 180 140 0 140 0 0 225 0 225
-145 0 -145 0 0 210 0 210 -180 0 -180 0 0 -615z"/>
<path d="M4279 2257 c-16 -35 -41 -108 -55 -163 -22 -86 -25 -114 -21 -214 2
-63 12 -148 21 -187 l18 -73 414 0 414 0 0 350 0 350 -381 0 -380 0 -30 -63z
m321 -127 l0 -50 -50 0 -50 0 0 50 0 50 50 0 50 0 0 -50z m290 0 l0 -50 -55 0
-55 0 0 50 0 50 55 0 55 0 0 -50z m-290 -276 l0 -55 -47 3 -48 3 -3 53 -3 52
50 0 51 0 0 -56z m290 6 l0 -50 -50 0 -50 0 0 50 0 50 50 0 50 0 0 -50z"/>
<path d="M5630 2180 c0 -28 2 -30 40 -30 38 0 40 2 40 30 0 28 -2 30 -40 30
-38 0 -40 -2 -40 -30z"/>
<path d="M4270 1554 c0 -29 70 -150 126 -218 71 -87 184 -175 287 -226 95 -47
255 -90 333 -90 l54 0 0 275 0 275 -400 0 c-360 0 -400 -2 -400 -16z"/>
<path d="M5640 1450 c0 -18 6 -19 87 -17 75 2 88 5 91 20 3 15 -6 17 -87 17
-84 0 -91 -2 -91 -20z"/>
</g>
</svg>
